<?xml version="1.0" encoding="utf-8"?>
<!-- Generator: Adobe Illustrator 18.0.0, SVG Export Plug-In . SVG Version: 6.00 Build 0)  -->
<!DOCTYPE svg PUBLIC "-//W3C//DTD SVG 1.1//EN" "http://www.w3.org/Graphics/SVG/1.1/DTD/svg11.dtd">
<svg version="1.1" id="Layer_1" xmlns="http://www.w3.org/2000/svg" xmlns:xlink="http://www.w3.org/1999/xlink" x="0px" y="0px"
	 viewBox="0 0 612 792" enable-background="new 0 0 612 792" xml:space="preserve">
<path d="M306,180.6c-49,0-85.7,12.2-104,36.7s-30.6,49-36.7,73.4l55.1,6.1c0-12.2,6.1-30.6,18.4-36.7c12.2-12.2,30.6-24.5,67.3-24.5
	s55.1,6.1,67.3,18.4c12.2,12.2,18.4,24.5,18.4,36.7c0,49-18.4,61.2-49,85.7s-67.3,61.2-67.3,128.5v12.2h55.1v-12.2
	c0-49,18.4-61.2,42.8-85.7s67.3-61.2,67.3-128.5c0-24.5-12.2-55.1-30.6-79.6C391.7,192.8,355,180.6,306,180.6z M275.4,578.4v55.1
	h55.1v-55.1H275.4z"/>
<circle fill="none" stroke="#231F20" stroke-width="40" stroke-miterlimit="10" cx="306" cy="408.6" r="274.6"/>
</svg>
